<svg xmlns="http://www.w3.org/2000/svg" xmlns:xlink="http://www.w3.org/1999/xlink" width="377.767" height="616.272" viewBox="0 0 377.767 616.272">
  <defs>
    <clipPath id="clip-Artboard_1">
      <rect width="377.767" height="616.272"/>
    </clipPath>
  </defs>
  <g id="Artboard_1" data-name="Artboard 1" clip-path="url(#clip-Artboard_1)">
    <rect width="377.767" height="616.272" fill="#fff"/>
    <g id="LOGO_Icon" data-name="LOGO Icon" transform="translate(-593.253)">
      <g id="Group_2" data-name="Group 2">
        <path id="Path_14" data-name="Path 14" d="M899.728,571.213C862.784,571.213,836,544.821,836,508.6c0-35.876,26.788-62.268,63.556-62.268a65.732,65.732,0,0,1,34.995,9.622V417.4a65.238,65.238,0,0,1-34.819,9.61C862.784,427.012,836,400.621,836,364.4c0-35.877,26.788-62.268,63.556-62.268a65.732,65.732,0,0,1,34.995,9.621V279.625h-58.7V184.237l58.7-27.419V42.154H931.47v96.01H872.02V42.775l1.329-.621H811.206v96.01h-59.45V42.775l1.329-.621H717.449a63.621,63.621,0,0,1,8.876,33.07c0,36.224-26.789,62.615-63.032,62.615a66.634,66.634,0,0,1-35.558-9.745v56.079l59.314-27.707V279.625H627.735v32.2a66.43,66.43,0,0,1,35.383-9.7c36.418,0,63.207,26.391,63.207,62.268,0,36.224-26.789,62.615-63.032,62.615a66.634,66.634,0,0,1-35.558-9.745V572.89H934.547V561.6A65.247,65.247,0,0,1,899.728,571.213Zm-206.97.347H633.309V476.171l59.449-27.77Zm118.448,0h-59.45V476.171l59.45-27.77Zm0-144.373h-59.45V331.8l59.45-27.771ZM783.283,280.27c-36.943,0-63.731-26.391-63.731-62.615,0-35.877,26.788-62.268,63.556-62.268,36.418,0,63.207,26.391,63.207,62.268C846.315,253.879,819.526,280.27,783.283,280.27Z" fill="none"/>
        <path id="Path_15" data-name="Path 15" d="M726.325,75.224a63.621,63.621,0,0,0-8.876-33.07H627.735v85.94a66.634,66.634,0,0,0,35.558,9.745C699.536,137.839,726.325,111.448,726.325,75.224Z"/>
        <path id="Path_16" data-name="Path 16" d="M836,508.6c0,36.224,26.788,62.616,63.732,62.616a65.247,65.247,0,0,0,34.819-9.61V455.951a65.732,65.732,0,0,0-34.995-9.622C862.784,446.329,836,472.721,836,508.6Z" fill="#ffd400"/>
        <path id="Path_17" data-name="Path 17" d="M726.325,364.4c0-35.877-26.789-62.268-63.207-62.268a66.43,66.43,0,0,0-35.383,9.7V417.267a66.634,66.634,0,0,0,35.558,9.745C699.536,427.012,726.325,400.621,726.325,364.4Z"/>
        <path id="Path_18" data-name="Path 18" d="M836,364.4c0,36.224,26.788,62.615,63.732,62.615a65.238,65.238,0,0,0,34.819-9.61V311.75a65.732,65.732,0,0,0-34.995-9.621C862.784,302.129,836,328.52,836,364.4Z"/>
        <path id="Path_19" data-name="Path 19" d="M783.108,155.387c-36.768,0-63.556,26.391-63.556,62.268,0,36.224,26.788,62.615,63.731,62.615,36.243,0,63.032-26.391,63.032-62.615C846.315,181.778,819.526,155.387,783.108,155.387Z"/>
        <path id="Path_20" data-name="Path 20" d="M751.756,138.164h59.45V42.154h-58.12l-1.329.621Z"/>
        <path id="Path_21" data-name="Path 21" d="M875.02,138.164h59.45V42.154h-58.12l-1.329.621Z"/>
        <path id="Path_22" data-name="Path 22" d="M687.049,156.466l-59.314,27.707v95.452h59.314Z"/>
        <path id="Path_23" data-name="Path 23" d="M875.849,279.625h58.7V156.818l-58.7,27.419Z"/>
        <path id="Path_24" data-name="Path 24" d="M751.756,427.187h59.45V304.028l-59.45,27.77Z"/>
        <path id="Path_25" data-name="Path 25" d="M630.309,571.56h59.45V448.4l-59.45,27.77Z"/>
        <path id="Path_26" data-name="Path 26" d="M751.756,571.56h59.45V448.4l-59.45,27.77Z"/>
      </g>
    </g>
  </g>
</svg>
